<svg xmlns="http://www.w3.org/2000/svg" viewBox="0 0 1200 630" role="img" aria-label="Autofac — The governed AI software factory">
  <rect width="1200" height="630" fill="#0B0F14"/>
  <rect width="1200" height="630" fill="url(#glow)"/>
  <g opacity="0.18" stroke="#223040" stroke-width="1">
    <path d="M0 90 H1200 M0 180 H1200 M0 270 H1200 M0 360 H1200 M0 450 H1200 M0 540 H1200"/>
    <path d="M100 0 V630 M300 0 V630 M500 0 V630 M700 0 V630 M900 0 V630 M1100 0 V630"/>
  </g>

  <g transform="translate(90,86)">
    <rect width="34" height="34" rx="10" fill="url(#mark)"/>
    <path d="M10 25 v-8 a7 7 0 0 1 14 0" fill="none" stroke="#fff" stroke-width="3" stroke-linecap="round"/>
    <circle cx="17" cy="26" r="2.4" fill="#fff"/>
    <text x="50" y="25" font-family="Segoe UI, Helvetica, Arial, sans-serif" font-size="26" font-weight="700" fill="#E7ECF1">autofac<tspan fill="#7C8C9B">.de</tspan></text>
  </g>

  <text x="90" y="300" font-family="Segoe UI, Helvetica, Arial, sans-serif" font-size="76" font-weight="700" letter-spacing="-2" fill="#E7ECF1">The governed AI</text>
  <text x="90" y="386" font-family="Segoe UI, Helvetica, Arial, sans-serif" font-size="76" font-weight="700" letter-spacing="-2" fill="#E7ECF1">software factory</text>

  <text x="92" y="446" font-family="Segoe UI, Helvetica, Arial, sans-serif" font-size="27" fill="#A9B8C6">BPMN workflows · policy gates · sandboxes · approvals · evidence packs</text>

  <g transform="translate(90,510)" font-family="Segoe UI, Helvetica, Arial, sans-serif" font-size="20" font-weight="600">
    <g><rect width="150" height="46" rx="23" fill="#141E28" stroke="#223040"/><text x="75" y="29" text-anchor="middle" fill="#A9B8C6">Trigger</text></g>
    <g transform="translate(170,0)"><rect width="170" height="46" rx="23" fill="#141E28" stroke="#3a2a22"/><text x="85" y="29" text-anchor="middle" fill="#D97757">Policy gate</text></g>
    <g transform="translate(360,0)"><rect width="150" height="46" rx="23" fill="#141E28" stroke="#223040"/><text x="75" y="29" text-anchor="middle" fill="#A9B8C6">Approval</text></g>
    <g transform="translate(530,0)"><rect width="170" height="46" rx="23" fill="#141E28" stroke="#173a2b"/><text x="85" y="29" text-anchor="middle" fill="#3FB27F">Evidence</text></g>
  </g>

  <defs>
    <radialGradient id="glow" cx="82%" cy="0%" r="70%">
      <stop offset="0%" stop-color="#D97757" stop-opacity="0.20"/>
      <stop offset="60%" stop-color="#D97757" stop-opacity="0"/>
    </radialGradient>
    <linearGradient id="mark" x1="0" y1="0" x2="34" y2="34" gradientUnits="userSpaceOnUse">
      <stop stop-color="#D97757"/><stop offset="1" stop-color="#B8593C"/>
    </linearGradient>
  </defs>
</svg>
